<svg width="179" height="187" viewBox="0 0 179 187" fill="none" xmlns="http://www.w3.org/2000/svg">
<path d="M59.7316 37.2399L70.0588 37.5883C74.6737 37.744 82.1029 38.5142 86.637 39.3892C89.4101 39.9243 92.1999 40.5237 94.8513 41.2726C97.2831 41.9595 101.051 43.6286 103.042 45.1827C109.411 50.1526 111.382 56.9961 111.494 64.8221C111.53 67.3526 110.585 71.3029 109.375 73.5246C104.983 81.5894 99.8788 84.7724 92.5091 87.8514C87.0315 90.1398 77.7427 92.5134 71.8212 92.899C68.0291 93.146 64.2343 93.2535 60.4258 93.2744C57.898 93.2887 53.8032 93.1306 51.2804 92.9694M59.7316 37.2399L54.379 87.1652L36.1547 90.4155L42.3039 90.8425M59.7316 37.2399L59.681 38.7391L61.0744 38.7861M59.7316 37.2399L61.2231 37.3998L61.0744 38.7861M42.3039 90.8425L36.2357 91.9247L51.2804 92.9694M42.3039 90.8425L51.376 91.4724L51.2804 92.9694M42.3039 90.8425L54.6423 88.6419L55.7504 88.4443L55.8704 87.3251L61.0744 38.7861M51.2804 92.9694L51.3843 91.473L51.3804 91.4727C53.8817 91.6324 57.9365 91.7884 60.4173 91.7744H60.4176C64.2037 91.7536 67.9678 91.6468 71.7237 91.4022C77.4558 91.0289 86.5824 88.7018 91.9308 86.4673C95.5682 84.9477 98.5379 83.4455 101.124 81.3847C103.694 79.3363 105.945 76.687 108.057 72.8072C108.578 71.8509 109.079 70.4438 109.444 68.936C109.809 67.4298 110.01 65.9419 109.994 64.8436C109.885 57.2637 107.992 50.9485 102.119 46.3652C100.329 44.968 96.7573 43.3696 94.4436 42.7161C91.8514 41.984 89.1088 41.3939 86.3528 40.862C81.9062 40.0039 74.5561 39.2409 70.0082 39.0875L61.0744 38.7861M40.1195 2.50038L37.9384 2.45143L38.6736 4.50553L40.3891 9.29788L3.91743 11.3087L2.42926 11.3907L2.50178 12.8794L10.2678 172.311L10.3352 173.694L11.72 173.737L46.3154 174.798L47.7331 174.841L47.8558 173.428L51.9774 125.964L68.2394 125.352L67.5243 125.536L65.7391 125.992L66.5487 127.648L91.966 179.614L92.3389 180.376L93.1843 180.449L142.253 184.691L145.006 184.929L143.706 182.491L111.688 122.416C115.779 122.233 120.906 121.173 126.429 119.349C133.225 117.105 140.741 113.666 147.859 109.128C162.036 100.088 174.918 86.4932 176.982 69.0282C177.803 63.8461 176.329 52.4466 169.574 40.5328L169.553 40.4958L169.53 40.4599C156.82 20.7419 134.214 11.5352 110.099 7.10144C89.5458 3.3227 67.6178 2.96592 49.3151 2.66812C46.1314 2.61632 43.0575 2.56631 40.1195 2.50038Z" fill="url(#paint0_linear_167_1465)" stroke="black" stroke-width="3"/>
<defs>
<linearGradient id="paint0_linear_167_1465" x1="89.8442" y1="4" x2="89.8442" y2="183.197" gradientUnits="userSpaceOnUse">
<stop offset="0.105" stop-color="#FFE552"/>
<stop offset="1" stop-color="#FBAE29"/>
</linearGradient>
</defs>
</svg>
